<svg xmlns="http://www.w3.org/2000/svg" width="1080" height="1080" fill="none" viewBox="0 0 1080 1080"><path fill="#fef9f1" d="M318.343 205.425c1.942-9.025 6.919-19.736 11.186-27.88 16.738-31.95 41.751-59.434 73.203-77.98 44.53-26.101 97.759-33.796 148.039-21.4 45.633 11.408 80.839 38.468 104.696 77.977 20.158-11.109 51.096-17.522 74.046-18.262 41.421-1.038 81.597 13.975 111.867 41.802 32.266 29.92 52.059 69.959 53.205 113.819 1.308 42.177-14.814 83.076-44.683 113.367-28.73 29.412-66.263 48.001-108.099 48.831a1374 1374 0 0 0 35.248 201.334c-2.271 2.96-8.543 7.759-11.587 10.505-39.108 42.124-48.973 99.303-38.553 154.021l3.727 13.921c-87.982 40.236-185.991 54.337-282.003 40.561a438 438 0 0 1-35.286-6.286c-5.843-1.307-12.451-3.354-18.133-4.406-.207-3.672.201-9.765.355-13.61-.429-60.036-30.638-109.131-86.065-134.643-4.396-1.729-8.452-3.326-12.952-4.792 3.373-43.418 1.177-88.909-1.014-132.285-.943-18.668-3.248-37.387-4.479-56.066-126.499 47.934-226.237-66.484-194.915-187.94 12.204-46.962 43.038-87.152 85.605-111.579 43.122-24.928 88.41-31.19 136.592-19.009"/><path fill="#5f2704" d="M318.343 205.425c1.942-9.025 6.919-19.736 11.186-27.88 16.738-31.95 41.751-59.434 73.203-77.98 44.529-26.101 97.759-33.796 148.039-21.4 45.633 11.408 80.839 38.468 104.696 77.977 20.158-11.109 51.096-17.522 74.046-18.262 41.421-1.038 81.597 13.975 111.867 41.802 32.266 29.92 52.059 69.959 53.205 113.819 1.308 42.177-14.815 83.076-44.683 113.367-28.73 29.412-66.263 48.001-108.099 48.831a1374 1374 0 0 0 35.248 201.334c-2.271 2.96-8.543 7.759-11.588 10.505-17.697-65.465-29.707-138.054-36.942-205.449-1.631-15.209-3.874-37.412-4.233-52.407-30.607-17.092-64.828-26.966-99.97-28.843-11.447-.715-20.777-1.605-31.894 1.548-5.66 1.606-24.56 8.464-26.015-.049.555-1.662 1.019-3.049 2.77-3.749 5.913-2.366 12.263-4.317 18.07-6.913 19.913-8.963 37.582-22.11 51.771-38.517 3.945-4.519 9.915-13.957 15.371-13.207 8.845 12.595-29.046 43.553-38.285 49.877 36.288-1.07 72.225 7.227 104.238 24.065 5.773 3.06 32.266 17.09 26.212 25.235-3.164 1.46-4.57 1.024-8.001 1.081-.457 4.55 1.181 16.435 1.645 21.69 80.213-4.039 144.317-70.845 140.196-150.265-2.193-39.547-20.404-76.581-50.561-102.829-28.807-25.364-66.706-38.39-105.307-36.195-21.017 1.282-44.276 6.729-63.204 15.997 1.765 5.73 9.302 25.97-4.62 21.47-2.953-.955-6.321-13.421-7.762-16.339-54.415-110.122-209.271-112.375-284.434-23.243-19.352 23.35-32.852 50.849-39.409 80.276-1.5 6.469-1.383 13.727-7.573 15.002-9.138-2.89-4.7-19.756-2.852-26.686-45.153-11.118-88.169-4.39-128.175 19.374-38.795 23.161-66.606 60.574-77.28 103.959-27.81 111.585 65.044 212.286 180.12 167.248a604 604 0 0 1-3.284-26.617l-.68.711c-3.302 3.397-5.019 5.126-9.296 1.78-2.734-6.74 9.898-18.124 14.408-22.389 30.995-29.312 78.78-54.989 120.938-64.091-9.936-3.023-44.838-15.421-39.458-29.699 3.452-3.012 6.534-.536 9.8 1.951 17.814 13.564 37.933 18.29 60.19 18.324 7.317.011 24.034-3.995 29.226.569.882 2.202.831 1.103.087 3.41-6.937 6.844-29.019 8.585-39.436 11.371-47.211 12.624-98.337 33.246-134.253 67.042 3.249 18.349 5.458 40.215 7.365 58.778 4.433 41.03 6.701 82.26 6.797 123.52-.114 21.494-1.414 41.529-2.237 62.767-4.396-1.729-8.452-3.326-12.952-4.792 3.373-43.418 1.177-88.909-1.014-132.285-.943-18.668-3.248-37.387-4.479-56.066-126.499 47.934-226.237-66.484-194.915-187.94 12.204-46.962 43.038-87.152 85.605-111.579 43.122-24.928 88.41-31.19 136.592-19.009m408.568 616.134 3.727 13.921c-87.982 40.236-185.991 54.337-282.002 40.561a438 438 0 0 1-35.287-6.286c-5.843-1.308-12.451-3.355-18.133-4.406-.207-3.672.201-9.765.355-13.61 95.66 23.154 196.938 20.72 290.285-12.282 13.528-4.786 28.118-11.66 41.055-17.898"/><path fill="#fe9996" d="M673.994 595.614c41.871-3.956 50.274 40.264 9.584 48.77-43.559 5.221-53.1-39.8-9.584-48.77M407.36 630.262c38.956-5.228 51.166 38.701 8.469 48.804-9.732.796-18.507.685-27.054-5.048-10.916-7.255-12.694-21.418-4.729-31.536 6.115-7.773 13.827-10.754 23.314-12.22"/><path fill="#5f2704" d="M590.737 625.856c13.12-.2 10.694 11.757 8.466 20.997-3.298 13.347-11.883 24.841-23.843 31.93-28.442 17.082-62.768 6.909-79.454-20.934-1.645-3.126-8.408-19.676 1.372-21.453 4.739-.857 8.268 6.826 9.956 11.19 15.011 38.853 77.048 31.342 78.982-11.812.211-4.703.935-6.847 4.521-9.918m37.871-86.271c25.474-1.178 33.904 44.162 5.913 52.786-28.484.38-33.75-45.651-5.913-52.786m-187.066 22.842c24.825-.149 33.369 45.483 5.103 53.167-28.137-.284-33.06-47.771-5.103-53.167"/><path fill="#f12517" d="M138.495 743.196c-10.48-8.575-26.834-12.842-39.429-19.26-13.522-6.688-24.836-17.193-30.003-31.446-2.224-6.127 1.665-15.028 8.448-16.646 5.685-1.48 10.087 3.52 11.622 8.271 6.426 19.876 23.43 26.204 42.433 30.132 4.237.878 9.632 2.268 13.723 4.018 2.627 1.12 4.293 2.496 7.198 1.985 1.254-3.811-4.354-15.526-6.364-19.447-11.495-22.407-27.312-44.261-52.518-52.602-6.423-2.13-16.556-3.776-22.598-.484-8.32 4.489-1.478 13.659-3.882 20.471-1.543 5.007-10.72 5.643-14.696 3.513-8.963-4.813-9.867-16.01-8.084-24.682 2.412-11.743 11.835-19.703 23.037-22.815 16.995-4.724 35.985-.056 51.116 8.063 32.117 17.56 49.29 49.6 59.438 83.066a267 267 0 0 0 19.602-26.93c4.808-7.518 16.121-29.946 25.524-31.308 7.574-1.1 10.784 6.376 6.118 13.244-9.272 13.658-14.519 32.034-17.875 48.168 31.138-10.885 51.867-14.952 85.249-6.203 4.5 1.466 8.556 3.063 12.952 4.792 55.427 25.512 85.636 74.607 86.065 134.643-.154 3.845-.562 9.938-.355 13.61-2.752 25.595-9.782 47.719-24.539 69.358-25.085 36.806-64.013 62.298-108.214 70.863-44.63 8.52-92.888.29-130.656-25.101-33.662-22.428-56.9-57.076-64.613-96.343-6.77-36.357 1.493-70.624 22.818-100.825-15.078-4.461-30.297-9.641-41.267-21.363-2.672-3.174-4.731-10.339.446-12.227 7.301-2.663 12.517 4.592 20.437 6.971 25.702 7.732 46.417-2.068 68.867-13.486"/><path fill="#3c5801" d="M138.495 743.196c-10.48-8.575-26.834-12.842-39.429-19.26-13.522-6.688-24.836-17.193-30.003-31.446-2.224-6.127 1.665-15.028 8.448-16.646 5.685-1.48 10.087 3.52 11.622 8.271 6.426 19.876 23.43 26.204 42.433 30.132 4.237.878 9.632 2.268 13.723 4.018 2.627 1.12 4.293 2.496 7.198 1.985 1.254-3.811-4.354-15.526-6.364-19.447-11.495-22.407-27.312-44.261-52.518-52.602-6.423-2.13-16.556-3.776-22.598-.484-8.32 4.489-1.478 13.659-3.882 20.471-1.543 5.007-10.72 5.643-14.696 3.513-8.963-4.813-9.867-16.01-8.084-24.682 2.412-11.743 11.835-19.703 23.037-22.815 16.995-4.724 35.985-.056 51.116 8.063 32.117 17.56 49.29 49.6 59.438 83.066a267 267 0 0 0 19.602-26.93c4.808-7.518 16.121-29.946 25.524-31.308 7.574-1.1 10.784 6.376 6.118 13.244-9.272 13.658-14.519 32.034-17.875 48.168-1.053 2.704-3.696 8.444-2.604 10.906 4.439.076 32.43-19.219 35.64-9.551-10.009 16.218-20.097 20.679-38.322 26.26 21.404 9.46 39.832 9.163 59.389-1.965 3.098-.905 7.685.201 8.346 3.804.692 3.776-1.421 8.493-3.688 11.439-19.41 25.277-50.447 34.108-79.451 20.277-2.442 16.57-11.51 31.494-25.191 41.453-5.335 3.866-19.122 12.095-24.503 5.844-4.119-4.786 4.812-15.125 6.973-19.288 5.11-9.835 5.22-22.02 5.781-32.781-15.906 7.386-31.874 11.639-49.631 9.82-1.031-.394-12.35-1.653-14.032-1.424-15.078-4.461-30.297-9.641-41.268-21.363-2.672-3.174-4.73-10.339.447-12.227 7.301-2.663 12.517 4.592 20.437 6.971 25.702 7.732 46.417-2.068 68.867-13.486"/><path fill="#81ad03" d="M75.216 630.891c35.526-3.755 67.576 26.266 82.3 55.126 5.762 11.3 9.628 22.22 13.739 34.074 1.858 5.352 5.874 22.801 9.071 26.217 2.344.021 1.396.408 3.025-.968 1.793-4.855-1.792-14.793-3.321-19.917a396 396 0 0 0 19.222-26.004c6.739-10.097 16.66-29.564 25.245-36.224-3.203 8.029-11.563 19.599-13.264 27.704-2.072 9.876-17.767 50.665-17.234 56.841 3.287 4.419 11.372 7.496 16.585 9.488 19.016 7.289 32.983 6.121 51.219-1.68-4.404 4.384-8.038 8.084-13.131 11.694-13.416 9.551-30.624 12.31-46.431 7.455-4.839-1.514-10.738-4.688-15.379-5.408-6.496 3.59-4.646 36.543-35.783 49.559 8.763-12.504 12.081-34.116 11.008-49.4-.147-2.088-1.32-3.195-2.865-4.26-4.968-.608-16.525 4.924-21.701 6.992l-1.467.408c-29.215 8.022-52.311 3.078-78.155-11.266 4.019.72 8.807 2.414 12.954 3.521 22.618 6.023 47.104-.561 66.946-11.716 3.575-2.012 11.005-4.765 12.817-7.946-1.139-8.742-41.793-24.475-50.277-28.355-7.754-3.54-32.756-24.737-21.398-32.518 4.396.367 5.905 9.399 8.77 13.562 16.586 24.116 46.703 20.616 70.949 35.533 1.304 5.927 2.25 17.387 7.411 20.796 2.544.083 1.411.415 3.499-1.093.092-2.24-5.905-26.397-7.45-32.054-9.942-36.405-50.469-95.403-95.814-79.649-9.092 3.161-5.052 19.067-7.601 23.77-10.067 2.925-15.91-27.615 16.511-34.282"/><path fill="#81ad03" d="m229.637 723.403 1.004.436c-3.29 6.812-18.76 13.617-25.483 16.217l-.858-.318c-.182-2.178 1.67-5.636 2.614-7.814 7.802-3.23 14.528-6.287 22.723-8.521"/><path fill="#7d0a00" d="M211.305 718.507c31.138-10.886 51.866-14.952 85.249-6.204 4.5 1.466 8.556 3.064 12.952 4.793 55.427 25.512 85.636 74.607 86.065 134.643-.154 3.845-.562 9.938-.355 13.61-2.752 25.595-9.782 47.719-24.539 69.358-25.085 36.806-64.013 62.297-108.214 70.863-44.63 8.52-92.888.29-130.656-25.101-33.662-22.428-56.9-57.076-64.613-96.344-6.77-36.356 1.493-70.624 22.818-100.825 1.682-.228 13.001 1.031 14.032 1.425l-1.692.45c-3.814 4.246-7.225 9.751-10.07 14.675-30.343 52.518-15.067 117.976 29.399 158.039 31.193 27.725 72.423 41.937 114.39 39.426 42.923-2.026 83.244-20.837 111.995-52.255 25.583-28.341 38.567-65.575 36.055-103.391-3.995-62.152-51.337-119.124-116.62-122.844-7.099-.401-15.988.553-23.16 1.037-3.21-9.668-31.201 9.627-35.64 9.551-1.093-2.462 1.551-8.202 2.604-10.906"/><path fill="#fef9f1" d="M114.277 808.516c2.279.504 5.16 1.265 6.509 3.395 4.703 7.428-2.825 14.254-5.768 20.519-2.149 4.579-3.81 8.873-5.089 13.445a86.8 86.8 0 0 0-2.405 33.728c.418 3.547 2.453 11.182 1.922 13.561-2.166.236-1.181.16-3.69-1.196-5.864-5.719-8.312-11.051-11.192-18.5-7.08-18.313-1.756-57.788 19.713-64.952m184.855-58.107c20.541-.525 41.399 28.099 45.978 45.679 1.305 5.014 3.968 20.319 1.16 24.807l-1.109.055-1.076-1.68c-6.542-15.118-13.381-25.457-25.455-37.629-6.965-7.441-19.674-11.432-25.579-19.177-3.922-5.146 1.698-10.007 6.081-12.055"/><path fill="#3c5801" d="M839.271 662.8c7.854-47.559 35.226-86.62 74.58-114.449 21.657-15.313 54.415-32.041 82.104-27.791 11.715 1.712 22.205 8.07 29.035 17.593 13.29 18.382 14.5 44.971 10.76 66.479-4.6 26.446-15.08 47.172-32.09 67.843 32.41 13.666 33.97 48.272 21.46 76.565-14.27 32.262-39.599 49.648-71.514 62.38 20.784 27.241 8.023 57.463-18.647 75.34-43.755 29.323-110.862 34.302-159.047 12.4a852 852 0 0 1-26.923 38.078c-3.41 4.627-10.504 14.717-14.357 18.334a12.7 12.7 0 0 1-6.111 3.126c-6.264 1.231-12.297-2.732-13.239-8.928-.837-5.512 2.777-8.472 5.878-12.566 12.867-16.059 26.972-32.29 39.269-48.708-14.864-16.577-23.54-31.432-29.791-53.016l-3.727-13.922c-10.42-54.717-.555-111.896 38.553-154.02 3.044-2.746 9.316-7.545 11.587-10.505l.753.297c12.642-7.946 23.674-12.684 39.15-9.115 8.985 2.047 16.917 7.227 22.317 14.585"/><path fill="#81ad03" d="M980.824 531.422c28.726-2.664 42.666 15.658 45.496 43.171 3.36 32.646-11.94 72.536-35.188 96.845-3.186 3.327-2.138 8.52 1.61 9.039 24.638 3.41 30.928 25.782 27.718 46.737-5.09 31.861-33.217 59.745-63.296 71.612-3.692 1.46-15.378 4.952-17.185 7.774-.837 5.809 8.986 13.299 11.384 21.328 3.199 8.513 1.793 21.542-3.164 29.696-28.224 46.446-123.223 55.236-166.746 32.456 7.769-9.869 17.789-25.927 25.242-36.82 20.081-1.908 69.637-7.24 88.734-13.631-28.455-.435-53.388.706-81.64 2.31 17.121-23.403 37.653-55.229 53.656-79.96 28.097-11.729 65.053-25.968 91.849-39.005-33.504 7.165-50.948 10.561-82.427 24.911a1277 1277 0 0 0 79.235-137.008c2.334-4.848 5.512-10.996 7.263-15.948-1.54 1.183-7.348 10.298-9.014 12.753-23.709 34.917-46.005 70.769-68.871 106.226-4.247 6.591-8.395 13.479-13.17 19.696 2.433-18.693 5-37.373 7.7-56.032 1.075-7.109 2.777-15.173 3.698-21.895-7.896 13.624-17.852 55.838-20.573 71.592-5.295 30.616-5.063 28.05-23.175 53.756l-39.052 54.891c-6.841-24.385-10.484-56.896-13.542-82.125-.935-7.732-.57-15.318-1.427-22.462l-.148.048c-1.378 3.244-1.484 12.365-1.835 16.397-3.017 34.441 1.983 65.721 8.402 99.553a3507 3507 0 0 0-24.715 32.912c-30.494-33.321-38.883-81.51-32.287-124.83 5.794-36.121 31.064-100.998 77.667-97.415 16.362 1.265 22.163 22.642 29.862 23.866 5.343-2.151 5.28-11.037 6.321-16.86 4.619-27.131 16.305-52.629 33.919-73.999 22.478-27.182 61.389-55.793 97.699-59.579m-214.27 364.924c.042 5.615-30.129 45.471-35.22 52.145-1.723 2.261-3.403 2.13-6.145 2.316-.387-1.141-1.526-3.672-.745-4.668 8.739-11.127 31.141-43.41 42.11-49.793"/></svg>